<svg width="160" height="32" viewBox="0 0 160 32" fill="none" xmlns="http://www.w3.org/2000/svg">
<path d="M18.363 18.2817L14.3685 20.7485C13.7798 21.1069 13.2749 20.9277 13.2749 20.2554V14.5627C13.3145 14.1942 13.4339 13.8405 13.6236 13.5295C13.8134 13.2185 14.0684 12.9586 14.3685 12.7704L18.363 10.3059C18.9524 9.94746 19.4573 10.1267 19.4573 10.799V16.4895C19.4037 16.8534 19.2785 17.2012 19.0899 17.5101C18.9013 17.8189 18.6536 18.0819 18.363 18.2817Z" fill="white"/>
<path d="M25.6022 13.7117L21.563 16.2208C20.9736 16.5793 20.4688 16.4001 20.4688 15.7285V10.0402C20.5085 9.67159 20.628 9.31779 20.8179 9.00667C21.0077 8.69555 21.2628 8.43559 21.563 8.24725L25.5603 5.78348C26.149 5.42503 26.6539 5.60426 26.6539 6.27579V11.9663C26.5701 12.681 26.1909 13.3533 25.6022 13.7117Z" fill="white"/>
<path d="M7.00619 18.2817L11.0035 20.7485C11.5929 21.1069 12.0978 20.9277 12.0978 20.2554V14.5627C12.058 14.1941 11.9385 13.8405 11.7486 13.5295C11.5587 13.2185 11.3036 12.9586 11.0035 12.7704L7.00619 10.3059C6.4175 9.94746 5.9126 10.1267 5.9126 10.799V16.4895C5.93514 16.8631 6.04759 17.2242 6.23912 17.538C6.43065 17.8519 6.69481 18.108 7.00619 18.2817Z" fill="white"/>
<path d="M7.00619 27.5567L11.0035 30.0212C11.5929 30.3797 12.0978 30.2004 12.0978 29.5282V23.883C12.0581 23.5144 11.9386 23.1607 11.7487 22.8497C11.5588 22.5387 11.3037 22.2789 11.0035 22.0908L7.00619 19.6263C6.4175 19.2678 5.9126 19.447 5.9126 20.1186V25.7645C5.93508 26.1381 6.0475 26.4992 6.23903 26.8131C6.43057 27.127 6.69477 27.3831 7.00619 27.5567Z" fill="white"/>
<path d="M17.9873 9.18535L13.6534 12.0529C13.3578 12.2292 13.0246 12.3217 12.6858 12.3217C12.347 12.3217 12.0139 12.2292 11.7183 12.0529L7.42631 9.18535C7.30863 9.1291 7.20872 9.03782 7.13863 8.9225C7.06854 8.80718 7.03125 8.67275 7.03125 8.53538C7.03125 8.39802 7.06854 8.26358 7.13863 8.14826C7.20872 8.03295 7.30863 7.94167 7.42631 7.88542L11.7602 5.01784C12.0558 4.84158 12.3889 4.74902 12.7277 4.74902C13.0665 4.74902 13.3997 4.84158 13.6953 5.01784L18.0292 7.88244C18.185 7.9892 18.2975 8.1544 18.3443 8.34531C18.3911 8.53622 18.3689 8.7389 18.282 8.91316C18.1975 9.00612 18.1137 9.14073 17.9873 9.18535Z" fill="white"/>
<path d="M10.9604 4.43612L6.62648 7.3037C6.33074 7.47996 5.9975 7.57251 5.65859 7.57251C5.31968 7.57251 4.98644 7.47996 4.69069 7.3037L0.399415 4.43612C0.317688 4.40004 0.243775 4.3465 0.182238 4.2788C0.120701 4.21111 0.0728478 4.1307 0.0416321 4.04254C0.0104164 3.95439 -0.0034989 3.86035 0.000745353 3.76624C0.00498961 3.67213 0.0273033 3.57995 0.0663088 3.49538C0.131864 3.33484 0.252151 3.20675 0.402907 3.13694L4.73329 0.269359C5.0288 0.0927541 5.36198 0 5.70084 0C6.0397 0 6.37288 0.0927541 6.66838 0.269359L11.0023 3.13694C11.1633 3.22682 11.2845 3.38068 11.3397 3.56515C11.3949 3.74962 11.3795 3.94981 11.297 4.1223C11.2175 4.26103 11.1 4.37054 10.9604 4.43612Z" fill="white"/>
<path d="M33.0469 25.8093C33 25.7275 32.9711 25.6354 32.9624 25.54V3.58403C32.971 3.48887 32.9999 3.39705 33.0469 3.31557C33.1234 3.26554 33.2096 3.23477 33.299 3.22559H36.1182C36.2078 3.23476 36.2942 3.26553 36.371 3.31557C36.4028 3.35088 36.4268 3.3933 36.4413 3.43973C36.4558 3.48617 36.4604 3.53547 36.4548 3.58403V25.54C36.446 25.6353 36.4174 25.7273 36.371 25.8093C36.3377 25.8432 36.2977 25.8687 36.254 25.8842C36.2103 25.8996 36.1639 25.9045 36.1182 25.8985H33.299C33.1726 25.9431 33.0888 25.8985 33.0469 25.8093Z" fill="white"/>
<path d="M49.2068 10.4854C49.88 11.4274 50.2166 12.7717 50.2166 14.5183V25.5819C50.2077 25.6772 50.1788 25.7692 50.1321 25.8511C50.099 25.885 50.0591 25.9105 50.0155 25.926C49.9719 25.9414 49.9256 25.9463 49.88 25.9403H47.0629C46.8946 25.9857 46.7682 25.8511 46.7263 25.6719V14.8314C46.7631 14.1959 46.6002 13.5653 46.2633 13.0392C45.9686 12.593 45.4638 12.3699 44.9589 12.3699C44.6936 12.3514 44.4282 12.4029 44.1861 12.5196C43.9439 12.6363 43.7325 12.8148 43.5706 13.0392C43.196 13.5817 43.0169 14.2494 43.0657 14.9207V25.5819C43.0567 25.6772 43.0278 25.7692 42.9812 25.8511C42.948 25.885 42.9082 25.9105 42.8646 25.926C42.821 25.9414 42.7747 25.9463 42.7291 25.9403H39.9078C39.8183 25.9311 39.7319 25.9006 39.655 25.8511C39.6232 25.8156 39.5991 25.7731 39.5846 25.7265C39.5701 25.68 39.5655 25.6306 39.5712 25.5819V9.72318C39.5799 9.62791 39.6085 9.53591 39.655 9.45398C39.6883 9.42008 39.7282 9.39449 39.772 9.37906C39.8157 9.36362 39.8621 9.35873 39.9078 9.36474H42.771C42.8602 9.374 42.9464 9.40449 43.0231 9.45398C43.0551 9.4893 43.0793 9.53181 43.0939 9.57839C43.1086 9.62497 43.1132 9.67444 43.1076 9.72318V10.3925C43.109 10.4156 43.1183 10.4374 43.1337 10.4538C43.1492 10.4703 43.1696 10.4802 43.1914 10.4817C43.234 10.4817 43.2759 10.4371 43.3597 10.3925C44.0755 9.50008 45.1691 9.04793 46.2633 9.09255C46.8242 9.04463 47.3873 9.14699 47.9015 9.39028C48.4156 9.63358 48.8644 10.0101 49.2068 10.4854Z" fill="white"/>
<path d="M54.1315 24.7803C53.1217 23.7942 52.6168 22.3604 52.6587 20.9266V14.3399C52.6403 13.6241 52.7618 12.9121 53.0153 12.2489C53.2688 11.5856 53.6489 10.9857 54.1315 10.487C55.0993 9.50165 56.4038 9.05322 58.0868 9.05322C59.7698 9.05322 61.0743 9.54627 62.0422 10.487C62.52 10.9325 62.8996 11.4847 63.154 12.1042C63.4085 12.7238 63.5315 13.3955 63.5143 14.0715V14.5177C63.5056 14.6127 63.477 14.7045 63.4305 14.7861C63.3973 14.8203 63.3574 14.8461 63.3137 14.8616C63.2699 14.8772 63.2235 14.8821 63.1777 14.8761L60.3592 15.0107C60.1909 15.0554 60.0226 14.9208 59.98 14.6969V14.2938C59.98 13.7562 59.8117 13.2185 59.4332 12.8593C58.7181 12.0978 57.5819 12.0978 56.8242 12.8593L56.7404 12.9493C56.4118 13.4311 56.235 14.0114 56.2355 14.6069V20.6113C56.1936 21.1936 56.4038 21.8212 56.7404 22.2697C56.9033 22.4816 57.1089 22.6519 57.342 22.7677C57.5751 22.8836 57.8296 22.9421 58.0868 22.939C58.5894 22.9373 59.0719 22.7286 59.4332 22.3567C59.7698 21.9536 59.98 21.4606 59.98 20.9229V20.6091C59.989 20.514 60.0179 20.4222 60.0645 20.3406C60.0976 20.3065 60.1374 20.2807 60.181 20.2651C60.2246 20.2496 60.271 20.2446 60.3166 20.2506L63.1358 20.2952C63.2253 20.3048 63.3117 20.3355 63.3886 20.3852C63.4204 20.4205 63.4444 20.4629 63.4589 20.5094C63.4734 20.5558 63.478 20.6051 63.4724 20.6537V21.2367C63.5143 22.6259 62.9675 23.9251 61.9996 24.8658C61.0317 25.8065 59.7279 26.255 58.0449 26.255C56.4038 26.1695 55.0993 25.721 54.1315 24.7803Z" fill="white"/>
<path d="M72.9826 9.45403C73.0159 9.42014 73.0558 9.39455 73.0995 9.37911C73.1432 9.36368 73.1896 9.35879 73.2354 9.36479H76.0545C76.1438 9.37405 76.2299 9.40455 76.3066 9.45403C76.3387 9.48936 76.3629 9.53187 76.3775 9.57845C76.3921 9.62503 76.3968 9.6745 76.3911 9.72324V25.5403C76.3824 25.6357 76.3535 25.7277 76.3066 25.8095C76.2735 25.8434 76.2337 25.869 76.1901 25.8844C76.1464 25.8998 76.1001 25.9047 76.0545 25.8987H73.2354C73.1896 25.9059 73.1429 25.9015 73.099 25.886C73.0551 25.8705 73.0153 25.8443 72.9826 25.8095C72.9499 25.7747 72.9253 25.7322 72.9107 25.6855C72.8962 25.6387 72.8921 25.589 72.8988 25.5403V24.8234C72.8988 24.7788 72.8569 24.7334 72.8569 24.6888C72.8569 24.6442 72.7724 24.6888 72.7305 24.7788C72.1411 25.7195 71.2158 26.1679 69.9113 26.1679C69.3656 26.1943 68.8205 26.1048 68.3076 25.9047C67.7948 25.7047 67.3244 25.398 66.9238 25.0026C66.1663 24.196 65.7876 22.986 65.7876 21.3728V9.77158C65.7962 9.67641 65.8251 9.58459 65.8721 9.50312C65.9486 9.45309 66.0348 9.42231 66.1242 9.41313H68.9434C69.033 9.42231 69.1194 9.45308 69.1962 9.50312C69.228 9.53843 69.252 9.58084 69.2665 9.62728C69.281 9.67372 69.2856 9.72301 69.28 9.77158V20.5666C69.28 22.1799 69.8691 22.9865 71.0475 22.9865C71.5943 23.0312 72.0992 22.7634 72.4358 22.2696C72.7724 21.732 72.9826 21.0597 72.9407 20.3874V9.76786C72.8569 9.58864 72.8988 9.4994 72.9826 9.45403Z" fill="white"/>
<path d="M88.8014 10.4402C89.5591 11.381 89.9376 12.6802 89.9376 14.2939V20.9252C90.0221 22.3144 89.601 23.6582 88.8014 24.7789C88.0444 25.7642 86.9921 26.2127 85.6038 26.2127C85.1005 26.2317 84.5989 26.1423 84.1289 25.9497C83.659 25.7571 83.2305 25.4654 82.8691 25.092C82.8524 25.075 82.8324 25.0622 82.8106 25.0545C82.7887 25.0468 82.7655 25.0444 82.7427 25.0473C82.7008 25.092 82.7008 25.092 82.7008 25.1819V25.582C82.6918 25.6774 82.663 25.7693 82.6163 25.8512C82.5831 25.8851 82.5433 25.9107 82.4997 25.9261C82.4561 25.9416 82.4098 25.9465 82.3642 25.9405H79.545C79.4555 25.9312 79.3691 25.9007 79.2922 25.8512C79.2604 25.8158 79.2363 25.7732 79.2218 25.7267C79.2073 25.6801 79.2028 25.6307 79.2084 25.582V3.62899C79.2171 3.53395 79.2457 3.4422 79.2922 3.36053C79.3254 3.32641 79.3653 3.30063 79.409 3.28506C79.4528 3.26949 79.4992 3.26453 79.545 3.27055H82.3642C82.4535 3.28008 82.5396 3.31083 82.6163 3.36053C82.6483 3.39572 82.6725 3.43809 82.6871 3.48455C82.7018 3.53101 82.7064 3.58037 82.7008 3.62899V10.1733C82.7021 10.1965 82.7113 10.2185 82.7267 10.2351C82.7422 10.2516 82.7627 10.2617 82.7846 10.2632C82.8265 10.2632 82.8691 10.2186 82.9529 10.1733C83.7056 9.49199 84.6579 9.11169 85.6457 9.09792C86.2327 9.05373 86.8215 9.15152 87.368 9.38398C87.9145 9.61644 88.4045 9.97753 88.8014 10.4402ZM85.8985 12.9494C85.1834 12.1879 84.0472 12.0979 83.2895 12.8148C82.9586 13.1861 82.7398 13.6544 82.661 14.1593V21.1044C82.7036 21.5975 82.9557 22.0905 83.2895 22.449C83.626 22.7668 84.0604 22.9419 84.5102 22.9413C85.0151 22.9413 85.5619 22.7182 85.8985 22.3144C86.2351 21.8682 86.4453 21.239 86.4033 20.656V14.6501C86.4397 14.3446 86.4134 14.0344 86.3262 13.7407C86.2391 13.4471 86.0931 13.1771 85.8985 12.9494Z" fill="white"/>
<path d="M90.7792 25.8099C90.7585 25.7605 90.7478 25.7071 90.7478 25.653C90.7478 25.5989 90.7585 25.5454 90.7792 25.4961L95.155 14.6973C95.1755 14.6725 95.1868 14.6407 95.1868 14.6077C95.1868 14.5747 95.1755 14.5428 95.155 14.5181L90.7792 3.62929C90.7373 3.58467 90.7373 3.54005 90.7373 3.45006C90.7373 3.27084 90.8211 3.1816 91.0739 3.1816H94.1466C94.2392 3.17719 94.3305 3.2056 94.4064 3.26238C94.4822 3.31917 94.5382 3.40113 94.5656 3.49543L97.1341 10.5751C97.1767 10.6198 97.1767 10.6644 97.2186 10.6644C97.2403 10.6628 97.2608 10.6529 97.2762 10.6365C97.2916 10.6201 97.3009 10.5983 97.3024 10.5751L99.8248 3.49543C99.8522 3.40113 99.9082 3.31917 99.984 3.26238C100.06 3.2056 100.151 3.17719 100.244 3.1816H103.231C103.4 3.1816 103.483 3.22622 103.526 3.3162C103.547 3.36544 103.557 3.41879 103.557 3.47274C103.557 3.5267 103.547 3.58004 103.526 3.62929L99.1097 14.4273C99.0894 14.4522 99.0783 14.484 99.0783 14.5169C99.0783 14.5499 99.0894 14.5817 99.1097 14.6065L103.489 25.4061C103.532 25.4507 103.532 25.4961 103.532 25.5853C103.532 25.7645 103.447 25.8545 103.195 25.8545H100.207C100.106 25.8782 100.001 25.8585 99.9143 25.7996C99.8274 25.7408 99.7661 25.6477 99.7438 25.5407L97.2193 18.5056C97.1774 18.461 97.1774 18.4164 97.1348 18.4164C97.113 18.4179 97.0926 18.4278 97.0771 18.4442C97.0617 18.4606 97.0524 18.4824 97.051 18.5056L94.4804 25.5407C94.4694 25.5936 94.4487 25.6437 94.4195 25.6882C94.3903 25.7326 94.3532 25.7704 94.3103 25.7996C94.2674 25.8287 94.2195 25.8486 94.1693 25.858C94.1192 25.8674 94.0678 25.8662 94.0181 25.8545H91.0725C90.9049 25.9437 90.8204 25.8991 90.7792 25.8099Z" fill="white"/>
<path d="M115.058 10.4857C115.815 11.4265 116.195 12.7264 116.195 14.3394V20.8837C116.195 22.5415 115.816 23.841 115.058 24.782C114.301 25.7227 113.249 26.1711 111.861 26.1711C111.373 26.1728 110.888 26.0817 110.43 25.9019C109.935 25.7169 109.488 25.4099 109.125 25.0058C109.109 24.9889 109.089 24.976 109.067 24.9683C109.046 24.9606 109.022 24.9582 109 24.9612C108.957 25.0058 108.957 25.0058 108.957 25.0951V31.6393C108.948 31.7346 108.92 31.8266 108.873 31.9085C108.84 31.9424 108.8 31.968 108.756 31.9834C108.713 31.9989 108.666 32.0038 108.621 31.9978H105.801C105.712 31.9885 105.626 31.958 105.549 31.9085C105.517 31.8732 105.493 31.8307 105.478 31.7841C105.464 31.7375 105.459 31.6881 105.465 31.6393V9.67884C105.474 9.58352 105.503 9.49153 105.549 9.40964C105.582 9.37576 105.622 9.35017 105.666 9.33473C105.709 9.31929 105.756 9.3144 105.801 9.3204H108.621C108.71 9.32964 108.796 9.36014 108.873 9.40964C108.905 9.44509 108.929 9.48764 108.944 9.5342C108.958 9.58075 108.963 9.63016 108.957 9.67884V10.0819C108.959 10.1051 108.968 10.1269 108.984 10.1433C108.999 10.1597 109.02 10.1696 109.042 10.1712C109.084 10.1712 109.125 10.1265 109.21 10.0819C109.967 9.41261 110.935 9.00657 111.903 9.05119C112.495 9.03423 113.083 9.15363 113.628 9.40122C114.172 9.64881 114.66 10.0187 115.058 10.4857ZM112.155 12.9502C111.993 12.726 111.782 12.5476 111.539 12.4309C111.297 12.3142 111.032 12.2627 110.766 12.2809C110.509 12.2777 110.255 12.3362 110.022 12.452C109.789 12.5679 109.583 12.7382 109.42 12.9502C109.084 13.4433 108.873 14.0256 108.915 14.6079V20.6122C108.873 21.1945 109.084 21.8222 109.42 22.2706C109.591 22.4692 109.799 22.6276 110.031 22.7356C110.263 22.8436 110.513 22.8987 110.766 22.8975C111.271 22.8975 111.819 22.6744 112.155 22.2706C112.492 21.8244 112.702 21.1945 112.66 20.6122V14.6503C112.702 14.0248 112.492 13.4425 112.155 12.9495V12.9502Z" fill="white"/>
<path d="M129.193 18.91C129.159 18.9439 129.119 18.9695 129.076 18.985C129.032 19.0004 128.986 19.0053 128.94 18.9993H122.166C122.082 18.9993 121.998 19.0439 121.998 19.1339V20.6569C121.955 21.2399 122.166 21.8669 122.503 22.3153C122.666 22.5272 122.871 22.6974 123.104 22.8133C123.337 22.9291 123.592 22.9877 123.849 22.9846C124.299 22.9853 124.733 22.8098 125.069 22.4915C125.409 22.1751 125.645 21.7511 125.742 21.2816C125.766 21.193 125.815 21.1148 125.883 21.0583C125.951 21.0018 126.034 20.9701 126.121 20.9678L128.814 21.1024C128.903 21.1116 128.99 21.1421 129.066 21.1916C129.151 21.2816 129.151 21.3708 129.151 21.5054C128.983 23.0292 128.478 24.1938 127.594 25.0007C126.709 25.8075 125.448 26.2106 123.849 26.2106C122.166 26.2106 120.862 25.7176 119.894 24.7768C118.884 23.7907 118.379 22.3569 118.421 20.9231V14.3395C118.403 13.6237 118.524 12.9116 118.777 12.2484C119.031 11.5851 119.411 10.9852 119.894 10.4865C120.862 9.50117 122.166 9.05273 123.849 9.05273C125.291 8.97707 126.705 9.48986 127.804 10.4865C128.814 11.4726 129.319 12.9064 129.277 14.3402V18.597C129.274 18.7072 129.245 18.8149 129.193 18.91ZM122.545 12.9503C122.216 13.4321 122.039 14.0124 122.04 14.6079V16.0871C122.04 16.1763 122.082 16.2663 122.166 16.2663H125.658C125.742 16.2663 125.826 16.2209 125.826 16.1317V14.6511C125.868 14.068 125.658 13.4411 125.321 12.9927C124.942 12.5896 124.437 12.3234 123.89 12.3234C123.637 12.3223 123.387 12.3775 123.155 12.4855C122.923 12.5934 122.715 12.7517 122.545 12.9503Z" fill="white"/>
<path d="M139.419 9.45456C139.501 9.49738 139.565 9.57278 139.597 9.6648C139.628 9.75682 139.625 9.85824 139.587 9.94761L139.082 12.9498C139.04 13.219 138.914 13.3082 138.663 13.1729C138.405 13.085 138.135 13.0398 137.864 13.039C137.637 13.0467 137.412 13.0766 137.19 13.1283C136.901 13.1783 136.626 13.2968 136.386 13.4752C136.145 13.6537 135.946 13.8873 135.801 14.159C135.423 14.7859 135.255 15.5028 135.255 16.2651V25.4962C135.246 25.5912 135.217 25.683 135.171 25.7647C135.138 25.7988 135.098 25.8246 135.054 25.8401C135.01 25.8557 134.964 25.8607 134.918 25.8546H132.099C131.931 25.8993 131.804 25.7647 131.762 25.5854V9.76838C131.771 9.67322 131.8 9.5814 131.847 9.49992C131.923 9.44989 132.009 9.41912 132.099 9.40994H134.914C135.003 9.41911 135.09 9.44988 135.167 9.49992C135.198 9.53523 135.222 9.57765 135.237 9.62408C135.251 9.67052 135.256 9.71982 135.25 9.76838V11.2468C135.25 11.3368 135.292 11.3814 135.292 11.426C135.314 11.4246 135.335 11.4148 135.35 11.3984C135.366 11.3819 135.375 11.36 135.377 11.3368C135.924 9.90299 136.85 9.23071 138.07 9.23071C138.535 9.14147 138.998 9.18609 139.419 9.45456Z" fill="white"/>
<path d="M147.706 11.8745C147.673 11.9084 147.633 11.934 147.589 11.9494C147.546 11.9648 147.499 11.9697 147.454 11.9637H145.56C145.477 11.9637 145.392 12.0091 145.392 12.0983V20.6564C145.392 21.4187 145.519 21.9564 145.771 22.2248C146.107 22.494 146.528 22.671 146.949 22.6286H147.158C147.248 22.6379 147.334 22.6684 147.41 22.7179C147.442 22.7532 147.467 22.7957 147.481 22.8423C147.496 22.8889 147.5 22.9383 147.495 22.9871V25.4962C147.486 25.5913 147.457 25.6831 147.41 25.7647C147.377 25.7988 147.338 25.8246 147.294 25.8401C147.25 25.8557 147.204 25.8607 147.158 25.8547H146.106C144.718 25.8547 143.708 25.5855 142.993 25.0478C142.278 24.5101 141.94 23.4794 141.94 21.9988V12.1429C141.94 12.0537 141.898 11.9637 141.815 11.9637H140.72C140.631 11.9545 140.545 11.924 140.468 11.8745C140.436 11.8392 140.412 11.7966 140.397 11.7501C140.383 11.7035 140.378 11.654 140.384 11.6053V9.7238C140.392 9.6284 140.421 9.53633 140.468 9.45459C140.501 9.42071 140.541 9.39512 140.585 9.37969C140.628 9.36425 140.675 9.35935 140.72 9.36535H141.772C141.856 9.36535 141.94 9.32073 141.94 9.23075V5.60165C141.949 5.50633 141.978 5.41434 142.025 5.33245C142.058 5.29857 142.098 5.27298 142.141 5.25754C142.185 5.24211 142.231 5.23721 142.277 5.24321H144.97C145.06 5.25246 145.146 5.28296 145.222 5.33245C145.254 5.36777 145.279 5.41028 145.293 5.45686C145.308 5.50344 145.313 5.55291 145.307 5.60165V9.18613C145.307 9.27537 145.349 9.36535 145.433 9.36535H147.368C147.458 9.37461 147.544 9.40511 147.621 9.45459C147.653 9.48992 147.677 9.53243 147.691 9.57901C147.706 9.62558 147.711 9.67506 147.705 9.7238V11.6053C147.831 11.7399 147.79 11.7845 147.706 11.8745Z" fill="white"/>
<path d="M150.821 24.9134C149.853 24.1073 149.348 22.8527 149.39 21.5535V21.2843C149.398 21.1889 149.427 21.0968 149.474 21.0151C149.507 20.9812 149.547 20.9556 149.591 20.9402C149.634 20.9247 149.681 20.9199 149.726 20.9259H152.38C152.469 20.9351 152.556 20.9656 152.633 21.0151C152.665 21.0505 152.689 21.0931 152.703 21.1397C152.718 21.1862 152.722 21.2356 152.716 21.2843V21.4635C152.718 21.7087 152.767 21.9509 152.861 22.1746C152.955 22.3983 153.092 22.5986 153.263 22.7627C153.65 23.1157 154.143 23.3068 154.652 23.3004C155.114 23.3012 155.562 23.1266 155.914 22.8081C156.077 22.6516 156.204 22.4567 156.285 22.239C156.365 22.0212 156.397 21.7865 156.377 21.5535C156.38 21.1574 156.245 20.7743 155.999 20.4774C155.746 20.209 155.451 19.9397 155.115 19.8081C154.568 19.5389 154.021 19.3151 153.474 19.0912C152.427 18.6807 151.457 18.0737 150.611 17.299C149.854 16.5814 149.517 15.4614 149.517 14.0269C149.49 13.3619 149.597 12.6984 149.829 12.0804C150.061 11.4625 150.414 10.9041 150.864 10.4424C151.884 9.52766 153.193 9.06285 154.524 9.1432C155.913 9.09783 157.259 9.54626 158.312 10.487C158.771 10.9528 159.133 11.5173 159.372 12.1431C159.611 12.7688 159.723 13.4416 159.7 14.1168C159.691 14.212 159.662 14.3038 159.615 14.3853C159.582 14.4194 159.543 14.4452 159.499 14.4608C159.455 14.4763 159.409 14.4813 159.363 14.4753H156.797C156.707 14.4658 156.621 14.435 156.544 14.3853C156.512 14.35 156.488 14.3076 156.474 14.2611C156.459 14.2147 156.455 14.1654 156.46 14.1168V13.9376C156.463 13.6958 156.419 13.456 156.332 13.2326C156.245 13.0092 156.117 12.8069 155.955 12.6377C155.617 12.2878 155.164 12.0944 154.693 12.1C154.474 12.0898 154.256 12.1258 154.05 12.2061C153.845 12.2864 153.657 12.4093 153.496 12.5677C153.336 12.7261 153.206 12.9169 153.116 13.129C153.025 13.341 152.975 13.5701 152.968 13.803V13.9376C152.963 14.1276 152.994 14.3167 153.059 14.4937C153.124 14.6707 153.221 14.8318 153.346 14.9676C153.583 15.2283 153.852 15.4535 154.146 15.6369C154.651 15.9061 155.156 16.1299 155.661 16.3538C156.399 16.6581 157.116 17.0174 157.807 17.4291C158.426 17.7907 158.947 18.3154 159.321 18.9529C159.795 19.673 160.031 20.5394 159.995 21.4174C160.036 22.7612 159.532 24.0158 158.564 24.8673C157.596 25.7188 156.334 26.1218 154.693 26.1218C153.052 26.1218 151.788 25.7203 150.821 24.9134Z" fill="white"/>
</svg>
